# xmcd
#
# Track frame offsets: 
#        150
#        4403
#        22117
#        56707
#        78136
#        86621
#        104685
#        127519
#        145767
#        158764
#        166511
#
# Disc length: 2489 seconds
#
# Revision: 7
# Processed by: cddbd v1.5.1PL2 Copyright (c) Steve Scherf et al.
# Submitted via: ExactAudioCopy v0.95b4
#
DISCID=7c09b70b
DTITLE=Tarwater - Animals, Suns and Atoms
DYEAR=2000
DGENRE=Electronic
TTITLE0=KR?LEG
TTITLE1=All Of The Ants Left Paris
TTITLE2=Noon
TTITLE3=The Trees
TTITLE4=Dauphin Sun
TTITLE5=At Low Frequency
TTITLE6=Song Of The Moth
TTITLE7=Early Rises
TTITLE8=Babyuniverse
TTITLE9=Somewhere
TTITLE10=Seven Ways To Fake A Perfect Skin
EXTD=
EXTT0=
EXTT1=
EXTT2=
EXTT3=
EXTT4=
EXTT5=
EXTT6=
EXTT7=
EXTT8=
EXTT9=
EXTT10=
PLAYORDER=
